<mxfile host="app.diagrams.net" modified="2024-08-28T16:01:56.884Z" agent="Mozilla/5.0 (Windows NT 10.0; Win64; x64) AppleWebKit/537.36 (KHTML, like Gecko) Chrome/128.0.0.0 Safari/537.36" version="22.1.13" etag="TjFjz616UC9wSX52wItc" type="github">
  <diagram name="Page-1" id="CXko6omQwp5d5I9osxOO">
    <mxGraphModel>
      <root>
        <mxCell id="0" />
        <mxCell id="1" parent="0" />
      </root>
    </mxGraphModel>
  </diagram>
</mxfile>
